<?xml version="1.0" encoding="UTF-8"?>
<svg version="1.1" xmlns="http://www.w3.org/2000/svg" width="512" height="512">
<path d="M0 0 C0.99261841 0.00215515 1.98523682 0.0043103 3.00793457 0.00653076 C17.83440163 0.05816285 32.35262639 0.38658718 46.9375 3.3125 C48.42540039 3.61051514 48.42540039 3.61051514 49.94335938 3.91455078 C99.12274618 14.14110551 142.59084745 36.6951155 178.9375 71.3125 C179.835896 72.16787354 179.835896 72.16787354 180.75244141 73.04052734 C189.08993043 81.03806198 196.73509045 89.25204073 203.61816406 98.53564453 C204.97818182 100.36728947 206.35899374 102.18190483 207.7421875 103.99609375 C214.1105373 112.42343333 219.74219786 121.11991515 224.9375 130.3125 C225.30053223 130.94285156 225.66356445 131.57320312 226.03759766 132.22265625 C245.10833112 165.53545047 256.93871002 205.6204273 257.140625 244.10546875 C257.14763931 245.00600983 257.15465363 245.9065509 257.16188049 246.8343811 C257.17927902 249.72297226 257.1857324 252.61135837 257.1875 255.5 C257.18851212 256.98105728 257.18851212 256.98105728 257.18954468 258.49203491 C257.17379657 272.98338264 256.72091075 287.05270251 253.9375 301.3125 C253.77652832 302.20952637 253.61555664 303.10655273 253.44970703 304.03076172 C242.62712011 363.84088904 208.56935543 421.35495829 159.9375 458.3125 C159.39722168 458.72918945 158.85694336 459.14587891 158.30029297 459.57519531 C129.18703283 481.9549428 96.49282643 497.27645708 60.9375 506.3125 C59.99881907 506.55858804 59.99881907 506.55858804 59.04117489 506.80964756 C53.2774033 508.22079047 47.85314332 508.61978905 41.93334961 508.63476562 C40.9757222 508.64469543 40.01809479 508.65462524 39.03144836 508.66485596 C35.8842166 508.69389463 32.73718714 508.70767652 29.58984375 508.71875 C27.9591756 508.72723213 27.9591756 508.72723213 26.29556465 508.73588562 C20.5296343 508.76580491 14.76380297 508.78429844 8.99780273 508.79296875 C3.11138604 508.80386 -2.77408706 508.85176534 -8.66021061 508.90891266 C-13.24460763 508.94663137 -17.82878927 508.95660141 -22.41332817 508.9596405 C-24.57896455 508.96560179 -26.74460154 508.98133773 -28.91008186 509.00801086 C-70.22515389 509.48011975 -112.77336046 491.13648268 -146.0625 467.3125 C-146.71847168 466.84585937 -147.37444336 466.37921875 -148.05029297 465.8984375 C-157.14182521 459.38614053 -165.5204596 452.41057075 -173.6015625 444.68798828 C-175.83029495 442.58961284 -178.1374129 440.58200419 -180.4375 438.5625 C-184.69082049 434.73929057 -188.39664922 430.69178758 -192.0625 426.3125 C-192.86042969 425.41402344 -193.65835938 424.51554687 -194.48046875 423.58984375 C-217.07461024 397.97705178 -233.79619491 366.77547811 -244.0625 334.3125 C-244.29662598 333.59433105 -244.53075195 332.87616211 -244.77197266 332.13623047 C-248.57974832 320.41436084 -251.1560467 308.48494011 -253.0625 296.3125 C-253.24200195 295.19149902 -253.42150391 294.07049805 -253.60644531 292.91552734 C-255.32040768 280.97758018 -255.46076982 269.10815835 -255.4375 257.0625 C-255.43695618 256.00346466 -255.43641235 254.94442932 -255.43585205 253.853302 C-255.39622251 237.04514504 -254.63215387 220.7970203 -251.0625 204.3125 C-250.84819336 203.32185547 -250.63388672 202.33121094 -250.41308594 201.31054688 C-248.89472919 194.56082125 -247.07884558 187.92932477 -245.0625 181.3125 C-244.7845459 180.39227051 -244.5065918 179.47204102 -244.22021484 178.52392578 C-232.89610974 141.8404752 -212.9509857 108.44750026 -186.44140625 80.77685547 C-184.64234906 78.86631279 -182.94298111 76.87964355 -181.25 74.875 C-177.84151448 70.9440459 -174.03843983 67.65575259 -170.0625 64.3125 C-168.67611328 63.09433594 -168.67611328 63.09433594 -167.26171875 61.8515625 C-154.26588096 50.49366411 -140.09434301 40.77296519 -125.0625 32.3125 C-124.35963867 31.91321289 -123.65677734 31.51392578 -122.93261719 31.10253906 C-100.39308401 18.41104808 -76.12564018 9.95432386 -50.875 4.5625 C-49.95017822 4.36366211 -49.02535645 4.16482422 -48.07250977 3.95996094 C-32.05557325 0.7066297 -16.30154346 -0.06372849 0 0 Z " fill="#E81E63" transform="translate(255.0625,3.6875)"/>
<path d="M0 0 C24.42 0 48.84 0 74 0 C74 24.42 74 48.84 74 74 C49.58 74 25.16 74 0 74 C0 49.58 0 25.16 0 0 Z " fill="#FEFAFB" transform="translate(301,223)"/>
<path d="M0 0 C24.42 0 48.84 0 74 0 C74 24.42 74 48.84 74 74 C49.58 74 25.16 74 0 74 C0 49.58 0 25.16 0 0 Z " fill="#FEF8FA" transform="translate(219,223)"/>
<path d="M0 0 C24.42 0 48.84 0 74 0 C74 24.42 74 48.84 74 74 C61.975625 74.020625 49.95125 74.04125 37.5625 74.0625 C33.76049072 74.071604 29.95848145 74.08070801 26.04125977 74.09008789 C21.4119873 74.09460449 21.4119873 74.09460449 19.24742126 74.09544373 C17.72996223 74.09698311 16.21250445 74.10050792 14.6950531 74.10557556 C12.40157941 74.11285438 10.10818071 74.11390737 7.81469727 74.11352539 C5.87277245 74.11685631 5.87277245 74.11685631 3.89161682 74.12025452 C1 74 1 74 0 73 C-0.09439978 70.73008113 -0.11742226 68.45718033 -0.11352539 66.18530273 C-0.11364593 65.46159265 -0.11376646 64.73788256 -0.11389065 63.99224186 C-0.11314163 61.63932837 -0.10551393 59.28649315 -0.09765625 56.93359375 C-0.0961868 55.48506712 -0.09516611 54.03653996 -0.09460449 52.5880127 C-0.08935201 47.20450039 -0.07539092 41.82099943 -0.0625 36.4375 C-0.041875 24.413125 -0.02125 12.38875 0 0 Z " fill="#FEF7F9" transform="translate(301,141)"/>
<path d="M0 0 C24.42 0 48.84 0 74 0 C74.020625 12.024375 74.04125 24.04875 74.0625 36.4375 C74.071604 40.23950928 74.08070801 44.04151855 74.09008789 47.95874023 C74.09460449 52.5880127 74.09460449 52.5880127 74.09544373 54.75257874 C74.09698311 56.27003777 74.10050792 57.78749555 74.10557556 59.3049469 C74.11285438 61.59842059 74.11390737 63.89181929 74.11352539 66.18530273 C74.115746 67.47991928 74.11796661 68.77453583 74.12025452 70.10838318 C74 73 74 73 73 74 C70.73008113 74.09439978 68.45718033 74.11742226 66.18530273 74.11352539 C65.0997376 74.11370619 65.0997376 74.11370619 63.99224186 74.11389065 C61.63932837 74.11314163 59.28649315 74.10551393 56.93359375 74.09765625 C55.48506712 74.0961868 54.03653996 74.09516611 52.5880127 74.09460449 C47.20450039 74.08935201 41.82099943 74.07539092 36.4375 74.0625 C24.413125 74.041875 12.38875 74.02125 0 74 C0 49.58 0 25.16 0 0 Z " fill="#FEF8FA" transform="translate(219,141)"/>
<path d="M0 0 C24.09 0 48.18 0 73 0 C73 24.09 73 48.18 73 73 C48.91 73 24.82 73 0 73 C0 48.91 0 24.82 0 0 Z " fill="#FEFCFD" transform="translate(302,306)"/>
<path d="M0 0 C24.09 0 48.18 0 73 0 C73 24.09 73 48.18 73 73 C48.91 73 24.82 73 0 73 C0 48.91 0 24.82 0 0 Z " fill="#FEFDFE" transform="translate(219,306)"/>
<path d="M0 0 C24.09 0 48.18 0 73 0 C73 24.09 73 48.18 73 73 C48.91 73 24.82 73 0 73 C0 48.91 0 24.82 0 0 Z " fill="#FEFDFE" transform="translate(137,306)"/>
<path d="M0 0 C24.09 0 48.18 0 73 0 C73 24.09 73 48.18 73 73 C48.91 73 24.82 73 0 73 C0 48.91 0 24.82 0 0 Z " fill="#FEFDFE" transform="translate(137,141)"/>
<path d="M0 0 C24.09 0 48.18 0 73 0 C73 23.76 73 47.52 73 72 C48.91 72 24.82 72 0 72 C0 48.24 0 24.48 0 0 Z " fill="#FEFEFE" transform="translate(137,224)"/>
<path d="M0 0 C3.6496684 1.87882338 5.73343652 4.60015478 8 8 C8.56040375 12.32664659 8.27614745 16.18689917 6.875 20.3125 C5.69403426 22.90104505 5.69403426 22.90104505 6.875 24.875 C7.24625 25.57625 7.6175 26.2775 8 27 C8.45384141 32.62763352 8.16579197 36.13824805 5 41 C1.06837771 44.5630327 -2.64192191 45.36495442 -7.9375 45.27734375 C-11.42504073 44.8083752 -13.4041149 43.29403799 -16 41 C-19.24354906 36.24279471 -19.45681556 32.57314983 -19 27 C-18.01 25.515 -18.01 25.515 -17 24 C-17.35515029 21.15879766 -18.09349251 18.71952248 -19 16 C-19.53923825 10.28407456 -18.63434458 7.44197671 -15 3 C-10.50723186 -1.08433467 -5.80016403 -0.91493181 0 0 Z " fill="#E82265" transform="translate(179,320)"/>
<path d="M0 0 C2.9375 0.375 2.9375 0.375 6 1 C7.3308911 3.66178221 7.11268993 5.68739396 7.09765625 8.6640625 C7.09443359 9.78554687 7.09121094 10.90703125 7.08789062 12.0625 C7.07951172 13.238125 7.07113281 14.41375 7.0625 15.625 C7.05798828 16.80835938 7.05347656 17.99171875 7.04882812 19.2109375 C7.03701467 22.14067507 7.02054258 25.07031272 7 28 C7.78375 27.95875 8.5675 27.9175 9.375 27.875 C12 28 12 28 14 30 C13.67028521 33.29714793 13.3773161 34.6226839 11 37 C9.68 37 8.36 37 7 37 C7.04125 38.11375 7.0825 39.2275 7.125 40.375 C7 44 7 44 5 46 C2.5 46.25 2.5 46.25 0 46 C-2 44 -2 44 -2.125 40.375 C-2.08375 39.26125 -2.0425 38.1475 -2 37 C-3.27617187 37.02320313 -4.55234375 37.04640625 -5.8671875 37.0703125 C-7.5364525 37.08906829 -9.2057238 37.10726869 -10.875 37.125 C-12.13763672 37.15013672 -12.13763672 37.15013672 -13.42578125 37.17578125 C-14.23144531 37.18222656 -15.03710938 37.18867188 -15.8671875 37.1953125 C-16.61081543 37.20578613 -17.35444336 37.21625977 -18.12060547 37.22705078 C-20 37 -20 37 -22 35 C-22.40492784 31.54704816 -22.3223605 29.58249499 -20.62646484 26.51806641 C-19.99434082 25.72062012 -19.3622168 24.92317383 -18.7109375 24.1015625 C-18.01613281 23.20953125 -17.32132813 22.3175 -16.60546875 21.3984375 C-15.86941406 20.48320312 -15.13335937 19.56796875 -14.375 18.625 C-12.94519583 16.80477914 -11.51550663 14.98446796 -10.0859375 13.1640625 C-9.05098145 11.86130371 -9.05098145 11.86130371 -7.99511719 10.53222656 C-5.26617432 7.06861969 -2.621958 3.54498782 0 0 Z " fill="#E82366" transform="translate(178,237)"/>
<path d="M0 0 C3.8914502 0.62892124 5.35761565 2.59812336 8.01953125 5.4375 C8.90253906 6.365625 9.78554687 7.29375 10.6953125 8.25 C11.35917969 8.971875 12.02304688 9.69375 12.70703125 10.4375 C17.04691116 8.60102521 19.51630146 5.57306688 22.609375 2.1171875 C24.70703125 0.4375 24.70703125 0.4375 27.3359375 0.0703125 C29.70703125 0.4375 29.70703125 0.4375 31.70703125 2.4375 C32.14453125 4.73046875 32.14453125 4.73046875 31.70703125 7.4375 C29.51953125 10.11328125 29.51953125 10.11328125 26.70703125 12.75 C25.31484375 14.07451172 25.31484375 14.07451172 23.89453125 15.42578125 C22.81171875 16.42158203 22.81171875 16.42158203 21.70703125 17.4375 C23.16412013 20.88849998 25.05477846 22.83387655 27.83203125 25.3125 C31.62522497 28.99574607 31.62522497 28.99574607 32.33203125 32.8125 C31.70703125 35.4375 31.70703125 35.4375 29.70703125 37.4375 C26.14285497 37.34642224 24.76301521 36.48531112 22.03125 34.15234375 C21.16113281 33.23582031 20.29101562 32.31929688 19.39453125 31.375 C18.51152344 30.45589844 17.62851562 29.53679687 16.71875 28.58984375 C16.05488281 27.87957031 15.39101563 27.16929687 14.70703125 26.4375 C10.03281087 28.35594419 7.32848099 31.94081794 4.0234375 35.63671875 C1.70703125 37.4375 1.70703125 37.4375 -0.953125 37.33203125 C-3.29296875 36.4375 -3.29296875 36.4375 -5.29296875 34.4375 C-5.20189099 30.87332372 -4.34077987 29.49348396 -2.0078125 26.76171875 C-1.09128906 25.89160156 -0.17476562 25.02148438 0.76953125 24.125 C1.68863281 23.24199219 2.60773438 22.35898437 3.5546875 21.44921875 C4.62009766 20.45341797 4.62009766 20.45341797 5.70703125 19.4375 C3.87055646 15.09762009 0.84259813 12.62822979 -2.61328125 9.53515625 C-4.29296875 7.4375 -4.29296875 7.4375 -4.66015625 4.80859375 C-4.15756403 1.56313121 -3.2255349 0.61543426 0 0 Z " fill="#E82568" transform="translate(242.29296875,241.5625)"/>
<path d="M0 0 C3.95660673 0.08312199 5.69759237 0.75083315 8.7734375 3.28515625 C9.63195312 4.20167969 10.49046875 5.11820312 11.375 6.0625 C12.24898438 6.98160156 13.12296875 7.90070313 14.0234375 8.84765625 C14.67570312 9.55792969 15.32796875 10.26820313 16 11 C17.06486855 10.10698344 18.12675041 9.2104053 19.1875 8.3125 C19.82816406 7.77109375 20.46882813 7.2296875 21.12890625 6.671875 C23.21094371 4.87435938 23.21094371 4.87435938 25.625 2.0625 C28 0 28 0 30.75 0.125 C33 1 33 1 34 2 C34.375 4.19921875 34.375 4.19921875 34 7 C32.38587866 9.13582841 30.86238098 10.92746844 29 12.8125 C28.52304687 13.31458984 28.04609375 13.81667969 27.5546875 14.33398438 C26.380799 15.5665673 25.19183114 16.78475789 24 18 C24.91447846 19.08518111 25.83170407 20.16804738 26.75 21.25 C27.29398437 21.89195312 27.83796875 22.53390625 28.3984375 23.1953125 C30.0528611 25.12912214 30.0528611 25.12912214 32.375 27.125 C34 29 34 29 34.375 31.625 C34 34 34 34 32 36 C29.69921875 36.43359375 29.69921875 36.43359375 27 36 C24.39453125 33.84765625 24.39453125 33.84765625 21.8125 31.0625 C18.74770346 27.57904588 18.74770346 27.57904588 15 25 C14.74863281 25.58265625 14.49726563 26.1653125 14.23828125 26.765625 C12.84332297 29.28271059 11.32829825 30.8343335 9.1875 32.75 C8.18783203 33.67039062 8.18783203 33.67039062 7.16796875 34.609375 C4.53384007 36.29901429 3.07495441 36.42693582 0 36 C-0.66 35.34 -1.32 34.68 -2 34 C-1.87492758 30.594619 -1.20244869 29.22314511 1.1015625 26.68359375 C2.78805386 25.1824598 4.47555963 23.68246476 6.1640625 22.18359375 C8.20068317 20.22002544 8.20068317 20.22002544 8.05859375 18 C6.14859345 14.39143854 2.9390268 12.01238753 -0.06640625 9.31640625 C-2 7 -2 7 -2.40234375 4.33984375 C-2 2 -2 2 0 0 Z " fill="#E82366" transform="translate(322,324)"/>
<path d="M0 0 C3.96885098 0.53739026 5.38047363 2.49333854 8.08203125 5.375 C8.96503906 6.303125 9.84804688 7.23125 10.7578125 8.1875 C11.42167969 8.909375 12.08554687 9.63125 12.76953125 10.375 C16.22053123 8.91791112 18.1659078 7.02725279 20.64453125 4.25 C24.32265625 0.448125 24.32265625 0.448125 28.20703125 -0.1875 C30.76953125 0.375 30.76953125 0.375 31.76953125 1.375 C32.14453125 4.1015625 32.14453125 4.1015625 31.76953125 7.375 C29.58203125 10.1484375 29.58203125 10.1484375 26.76953125 12.75 C25.84140625 13.62398437 24.91328125 14.49796875 23.95703125 15.3984375 C22.87421875 16.37683594 22.87421875 16.37683594 21.76953125 17.375 C23.60600604 21.71487991 26.63396437 24.18427021 30.08984375 27.27734375 C31.76953125 29.375 31.76953125 29.375 32.13671875 32.00390625 C31.76953125 34.375 31.76953125 34.375 29.76953125 36.375 C26.36415025 36.24992758 24.99267636 35.57744869 22.453125 33.2734375 C20.95199105 31.58694614 19.45199601 29.89944037 17.953125 28.2109375 C15.98533653 26.16217503 15.98533653 26.16217503 13.734375 26.3515625 C11.23506473 27.65339011 9.7650366 29.27162049 7.89453125 31.375 C5.26650872 34.11088912 4.0583612 35.27872335 0.39453125 36.5 C-2.23046875 36.375 -2.23046875 36.375 -4.23046875 34.375 C-4.671875 32.06640625 -4.671875 32.06640625 -4.23046875 29.375 C-2.0078125 26.83984375 -2.0078125 26.83984375 0.83203125 24.3125 C3.65900134 21.90389127 3.65900134 21.90389127 5.76953125 19.375 C6.05027702 17.26453608 6.05027702 17.26453608 4.76953125 15.375 C2.49018894 13.00668707 0.06683296 10.8687669 -2.39453125 8.69140625 C-4.23046875 6.375 -4.23046875 6.375 -4.06640625 3.65234375 C-2.9050315 0.4884116 -2.9050315 0.4884116 0 0 Z " fill="#E82165" transform="translate(324.23046875,159.625)"/>
<path d="M0 0 C1.08003296 0.00326294 1.08003296 0.00326294 2.18188477 0.0065918 C4.37697108 0.0097488 6.57070573 -0.01369198 8.765625 -0.0390625 C10.15950351 -0.04133581 11.55338564 -0.04203884 12.94726562 -0.04101562 C14.85270142 -0.04548706 14.85270142 -0.04548706 16.79663086 -0.05004883 C19.95117188 0.32226562 19.95117188 0.32226562 21.95141602 1.5324707 C22.95117188 3.32226562 22.95117188 3.32226562 22.81860352 5.74145508 C21.89788206 8.48081521 20.80412937 10.30932738 19.07226562 12.61523438 C18.48437256 13.40631592 17.89647949 14.19739746 17.29077148 15.01245117 C16.66307861 15.83656494 16.03538574 16.66067871 15.38867188 17.50976562 C14.7526001 18.35385986 14.11652832 19.1979541 13.46118164 20.06762695 C12.20021409 21.73633252 10.93525947 23.40203395 9.66601562 25.06445312 C8.22769944 26.9581815 6.81655672 28.86655558 5.41992188 30.79101562 C4.74960938 31.68820313 4.07929688 32.58539063 3.38867188 33.50976562 C2.83050781 34.26644531 2.27234375 35.023125 1.69726562 35.80273438 C-0.04882812 37.32226562 -0.04882812 37.32226562 -2.63867188 37.68554688 C-5.04882812 37.32226562 -5.04882812 37.32226562 -7.04882812 35.32226562 C-7.12434487 29.09213409 -3.26287083 25.16947773 0.45117188 20.57226562 C1.65022435 19.05753904 2.84819508 17.54195532 4.04492188 16.02539062 C4.84446289 15.03007324 4.84446289 15.03007324 5.66015625 14.01464844 C7.01855048 12.34327018 7.01855048 12.34327018 7.95117188 10.32226562 C7.10353271 10.33797607 7.10353271 10.33797607 6.23876953 10.35400391 C3.68461535 10.39551351 1.13053206 10.42157522 -1.42382812 10.44726562 C-2.31328125 10.46402344 -3.20273438 10.48078125 -4.11914062 10.49804688 C-4.96992188 10.50449219 -5.82070312 10.5109375 -6.69726562 10.51757812 C-7.87554932 10.53328857 -7.87554932 10.53328857 -9.07763672 10.54931641 C-11.04882812 10.32226562 -11.04882812 10.32226562 -13.04882812 8.32226562 C-13.29882812 5.32226562 -13.29882812 5.32226562 -13.04882812 2.32226562 C-9.60779247 -1.11877003 -4.64831117 0.01861075 0 0 Z " fill="#E9296B" transform="translate(169.048828125,158.677734375)"/>
<path d="M0 0 C2.9375 0.1875 2.9375 0.1875 3.9375 1.1875 C4.05072434 3.61240371 4.10166875 6.00776862 4.10546875 8.43359375 C4.10879715 9.15990494 4.11212555 9.88621613 4.11555481 10.63453674 C4.12062675 12.17375046 4.12296305 13.7129752 4.12280273 15.25219727 C4.12498766 17.61167471 4.14313565 19.97068361 4.16210938 22.33007812 C4.16504352 23.82291506 4.16702817 25.31575423 4.16796875 26.80859375 C4.17515427 27.51696884 4.18233978 28.22534393 4.18974304 28.95518494 C4.16632337 33.95867663 4.16632337 33.95867663 1.9375 36.1875 C-1.125 35.9375 -1.125 35.9375 -4.0625 35.1875 C-6.26535851 30.78178297 -5.24834947 24.80171191 -5.24780273 19.90185547 C-5.24999147 17.6960935 -5.2681586 15.49082984 -5.28710938 13.28515625 C-5.29004293 11.88802255 -5.29202798 10.49088647 -5.29296875 9.09375 C-5.29707764 7.81822266 -5.30118652 6.54269531 -5.30541992 5.22851562 C-4.97000625 1.02960839 -4.20912108 0.25770129 0 0 Z " fill="#E82669" transform="translate(256.0625,159.8125)"/>
<path d="M0 0 C2.5625 0.1875 2.5625 0.1875 4.5625 2.1875 C4.8125 4.6875 4.8125 4.6875 4.5625 7.1875 C2.5625 9.1875 2.5625 9.1875 0.0625 9.5 C-1.175 9.3453125 -1.175 9.3453125 -2.4375 9.1875 C-4.4375 6.1875 -4.4375 6.1875 -4.125 3.5625 C-3.16420807 0.24340062 -3.16420807 0.24340062 0 0 Z " fill="#FDF1F5" transform="translate(173.4375,346.8125)"/>
<path d="M0 0 C2.5 0.25 2.5 0.25 4.5 2.25 C4.75 4.75 4.75 4.75 4.5 7.25 C3.84 7.91 3.18 8.57 2.5 9.25 C-0.625 8.875 -0.625 8.875 -3.5 8.25 C-4.125 5.375 -4.125 5.375 -4.5 2.25 C-2.5 0.25 -2.5 0.25 0 0 Z " fill="#FDF1F5" transform="translate(173.5,328.75)"/>
<path d="M0 0 C0.33 0 0.66 0 1 0 C1 2.97 1 5.94 1 9 C-1.31 9 -3.62 9 -6 9 C-6 8.34 -6 7.68 -6 7 C-5.34 7 -4.68 7 -4 7 C-3.71125 6.401875 -3.4225 5.80375 -3.125 5.1875 C-2 3 -2 3 0 0 Z " fill="#FAD6E2" transform="translate(175,256)"/>
</svg>
